<mxfile host="app.diagrams.net" modified="2023-07-20T18:57:21.707Z" agent="Mozilla/5.0 (Macintosh; Intel Mac OS X 10_15_7) AppleWebKit/605.1.15 (KHTML, like Gecko) Version/16.5.2 Safari/605.1.15" version="21.6.3" etag="d9BYoqukCcM-ZhmdgHB-" type="github">
  <diagram name="Page-1" id="qGN-IbYMMZTXBo537_Dv">
    <mxGraphModel>
      <root>
        <mxCell id="0" />
        <mxCell id="1" parent="0" />
      </root>
    </mxGraphModel>
  </diagram>
</mxfile>
